<svg width="25" height="24" viewBox="0 0 25 24" fill="none" xmlns="http://www.w3.org/2000/svg">
<path fill-rule="evenodd" clip-rule="evenodd" d="M4.5 5C4.5 3.34315 5.84315 2 7.5 2H17.5C19.1569 2 20.5 3.34315 20.5 5V19C20.5 20.6569 19.1569 22 17.5 22H7.5C5.84315 22 4.5 20.6569 4.5 19V5ZM9.5 6C8.94772 6 8.5 6.44772 8.5 7C8.5 7.55228 8.94772 8 9.5 8H15.5C16.0523 8 16.5 7.55228 16.5 7C16.5 6.44772 16.0523 6 15.5 6H9.5ZM9.5 10C8.94772 10 8.5 10.4477 8.5 11C8.5 11.5523 8.94772 12 9.5 12H15.5C16.0523 12 16.5 11.5523 16.5 11C16.5 10.4477 16.0523 10 15.5 10H9.5ZM9.5 14C8.94772 14 8.5 14.4477 8.5 15C8.5 15.5523 8.94772 16 9.5 16H11.5C12.0523 16 12.5 15.5523 12.5 15C12.5 14.4477 12.0523 14 11.5 14H9.5Z" fill="white"/>
</svg>
